<?xml version="1.0" encoding="UTF-8"?>
<!DOCTYPE svg PUBLIC "-//W3C//DTD SVG 1.1//EN" "http://www.w3.org/Graphics/SVG/1.1/DTD/svg11.dtd">
<!-- Creator: CorelDRAW -->
<svg xmlns="http://www.w3.org/2000/svg" xml:space="preserve" width="1346px" height="289px" style="shape-rendering:geometricPrecision; text-rendering:geometricPrecision; image-rendering:optimizeQuality; fill-rule:evenodd; clip-rule:evenodd"
viewBox="0 0 526.679 113.206"
 xmlns:xlink="http://www.w3.org/1999/xlink">
 <defs>
  <style type="text/css">
   <![CDATA[
    .fil1 {fill:#434242}
    .fil2 {fill:#FEFEFE}
    .fil0 {fill:#2B2A29;fill-rule:nonzero}
   ]]>
  </style>
 </defs>
 <g id="Layer_x0020_1">
  <metadata id="CorelCorpID_0Corel-Layer"/>
  <path class="fil0" d="M4.61778 22.2933l23.1083 0c7.28358,0 12.8217,0.56319 16.576,1.70805 3.75429,1.12638 6.79524,3.4355 9.10436,6.88949 2.30912,3.47293 3.45398,9.04799 3.45398,16.7446 0,5.2184 -0.807131,8.84148 -2.44033,10.8877 -1.6332,2.06518 -4.84325,3.64202 -9.64861,4.73052 5.35007,1.22017 8.97315,3.22898 10.8877,6.02599 1.89609,2.81595 2.85337,7.11448 2.85337,12.8965l0 8.25934c0,6.00705 -0.67592,10.4562 -2.06518,13.3659 -1.37032,2.89079 -3.56671,4.86173 -6.57024,5.93174 -3.00352,1.07001 -9.16072,1.59578 -18.4716,1.59578l-26.7878 0 0 -89.0357zm23.1647 15.2241l0 19.8045c0.976226,-0.0378848 1.74593,-0.0563652 2.30912,-0.0563652 2.27124,0 3.71687,-0.56319 4.33642,-1.67063 0.619555,-1.12638 0.938341,-4.31794 0.938341,-9.5927 0,-2.79701 -0.262421,-4.74946 -0.769246,-5.85689 -0.525767,-1.12638 -1.18274,-1.83972 -2.00882,-2.12109 -0.826073,-0.300306 -2.44033,-0.469402 -4.80582,-0.506824zm0 33.6583l0 24.9102c3.24793,-0.0937879 5.33159,-0.619093 6.23251,-1.53895 0.900919,-0.901381 1.35138,-3.17262 1.35138,-6.75827l0 -8.29723c0,-3.81065 -0.412574,-6.11978 -1.22017,-6.92691 -0.807131,-0.807131 -2.92822,-1.27653 -6.36372,-1.3888z"/>
  <polygon class="fil0" points="305.469,22.2933 292.215,62.484 306.726,111.329 282.811,111.329 273.462,73.1652 273.462,111.329 250.297,111.329 250.297,22.2933 273.462,22.2933 273.462,56.89 283.731,22.2933 "/>
  <path class="fil0" d="M362.78 61.1137l-23.1462 0 0 -15.5055c0,-4.50552 -0.262883,-7.32146 -0.750765,-8.44738 -0.488344,-1.1079 -1.57684,-1.67109 -3.26641,-1.67109 -1.91457,0 -3.11625,0.67592 -3.64156,2.02776 -0.507286,1.37032 -0.769708,4.29854 -0.769708,8.80405l0 41.3549c0,4.33596 0.262421,7.15191 0.769708,8.46586 0.525305,1.3329 1.67063,1.98987 3.47246,1.98987 1.72699,0 2.85337,-0.656978 3.37914,-1.98987 0.525767,-1.31396 0.807131,-4.41127 0.807131,-9.29194l0 -11.1506 23.1462 0 0 3.45398c0,9.19815 -0.65744,15.731 -1.95245,19.579 -1.29547,3.84854 -4.18627,7.22721 -8.63542,10.1185 -4.44869,2.89079 -9.94891,4.3549 -16.4628,4.3549 -6.7957,0 -12.3897,-1.23911 -16.7825,-3.69792 -4.39232,-2.45928 -7.321,-5.85689 -8.74769,-10.1933 -1.42669,-4.35536 -2.14003,-10.8877 -2.14003,-19.6169l0 -25.9991c0,-6.42008 0.225461,-11.2259 0.656978,-14.4359 0.450459,-3.21004 1.74593,-6.30735 3.94233,-9.27345 2.17745,-2.96564 5.19992,-5.31219 9.06694,-7.0207 3.86702,-1.68957 8.31617,-2.55306 13.3281,-2.55306 6.83312,0 12.4646,1.3329 16.8948,3.96127 4.43021,2.64685 7.33994,5.93174 8.74769,9.87407 1.38926,3.94187 2.08412,10.0806 2.08412,18.3963l0 8.46632z"/>
  <path class="fil0" d="M411.061 22.2933l13.2532 89.0357 -23.7094 0 -1.14486 -16.0128 -8.31617 0 -1.37032 16.0128 -23.9718 0 11.7702 -89.0357 33.4892 0zm-12.258 57.2545c-1.18274,-10.0806 -2.34655,-22.5451 -3.52929,-37.3562 -2.34655,17.026 -3.81065,29.472 -4.39279,37.3562l7.92208 0z"/>
  <path class="fil0" d="M477.327 49.2313l-21.4941 0 0 -6.58918c0,-3.07883 -0.281364,-5.04976 -0.826073,-5.89432 -0.544247,-0.845015 -1.46411,-1.25805 -2.75912,-1.25805 -1.38926,0 -2.4408,0.56319 -3.15414,1.70851 -0.713343,1.12638 -1.07001,2.85337 -1.07001,5.16203 0,2.9661 0.394556,5.21886 1.20169,6.72039 0.769708,1.50199 2.9661,3.30429 6.55129,5.44432 10.306,6.11932 16.7825,11.1317 19.4668,15.055 2.68428,3.92338 4.01717,10.2497 4.01717,18.9784 0,6.34524 -0.750765,11.0194 -2.23382,14.0229 -1.48305,3.00352 -4.35536,5.53765 -8.59753,7.56494 -4.26158,2.0273 -9.19861,3.05989 -14.849,3.05989 -6.19462,0 -11.4883,-1.18274 -15.8622,-3.52929 -4.39279,-2.34608 -7.26464,-5.33113 -8.61648,-8.95421 -1.35138,-3.64156 -2.0273,-8.78511 -2.0273,-15.4681l0 -5.81947 21.4941 0 0 10.8318c0,3.34125 0.300306,5.48128 0.900919,6.43856 0.619555,0.938803 1.68957,1.42669 3.22898,1.42669 1.53895,0 2.68428,-0.600612 3.43504,-1.82078 0.750765,-1.20122 1.12638,-3.00352 1.12638,-5.38749 0,-5.23734 -0.713343,-8.67284 -2.14003,-10.2871 -1.46411,-1.61472 -5.08719,-4.299 -10.8314,-8.07223 -5.76311,-3.82913 -9.57376,-6.58872 -11.4509,-8.31571 -1.85866,-1.72699 -3.41656,-4.11142 -4.63673,-7.15237 -1.23911,-3.04095 -1.83972,-6.92691 -1.83972,-11.6574 0,-6.81418 0.863496,-11.8076 2.60943,-14.9613 1.72699,-3.15368 4.54248,-5.61295 8.42844,-7.39631 3.88596,-1.76441 8.57905,-2.66579 14.0793,-2.66579 6.02553,0 11.1506,0.976226 15.3743,2.90974 4.24217,1.95245 7.03918,4.39279 8.42844,7.35889 1.37032,2.94716 2.04624,7.95904 2.04624,15.0361l0 3.51081z"/>
  <polygon class="fil0" points="486.525,22.2933 525.139,22.2933 525.139,40.108 509.69,40.108 509.69,56.9838 524.145,56.9838 524.145,73.9349 509.69,73.9349 509.69,93.5144 526.679,93.5144 526.679,111.329 486.525,111.329 "/>
  <rect class="fil1" x="66.2392" y="0.000204695" width="82.1229" height="51.2911"/>
  <rect class="fil2" x="85.4732" y="11.672" width="8.87669" height="34.8517"/>
  <rect class="fil2" x="98.6247" y="11.672" width="8.87669" height="34.8517"/>
  <rect class="fil2" transform="matrix(0.0108835 -0.00412016 0.121324 0.320482 109.467 14.3721)" width="762.778" height="101.704"/>
  <rect class="fil2" x="72.3216" y="11.672" width="8.87669" height="34.8517"/>
  <rect class="fil1" x="66.2392" y="59.9816" width="82.1229" height="51.2911"/>
  <rect class="fil2" x="120.132" y="71.6534" width="8.87669" height="34.8517"/>
  <rect class="fil2" x="106.981" y="71.6534" width="8.87669" height="34.8517"/>
  <rect class="fil2" x="133.284" y="71.6534" width="8.87669" height="34.8517"/>
  <rect class="fil1" x="157.171" y="0.000204695" width="82.1229" height="51.2911"/>
  <rect class="fil2" x="176.405" y="11.672" width="8.87669" height="34.8517"/>
  <rect class="fil2" x="189.557" y="11.672" width="8.87669" height="34.8517"/>
  <rect class="fil2" x="163.254" y="11.672" width="8.87669" height="34.8517"/>
  <rect class="fil1" x="157.171" y="59.9816" width="82.1229" height="51.2911"/>
  <rect class="fil2" x="211.064" y="71.6534" width="8.87669" height="34.8517"/>
  <rect class="fil2" x="197.913" y="71.6534" width="8.87669" height="34.8517"/>
  <rect class="fil2" x="224.216" y="71.6534" width="8.87669" height="34.8517"/>
  <rect class="fil2" transform="matrix(-0.0112556 -0.00295613 -0.0870476 0.331438 196.198 73.3524)" width="762.778" height="101.704"/>
 </g>
</svg>
