<?xml version="1.0" encoding="UTF-8"?>
<!DOCTYPE svg PUBLIC "-//W3C//DTD SVG 1.1//EN" "http://www.w3.org/Graphics/SVG/1.1/DTD/svg11.dtd">
<!-- Creator: CorelDRAW -->
<svg xmlns="http://www.w3.org/2000/svg" xml:space="preserve" width="988px" height="804px" style="shape-rendering:geometricPrecision; text-rendering:geometricPrecision; image-rendering:optimizeQuality; fill-rule:evenodd; clip-rule:evenodd"
viewBox="0 0 160.845 130.957"
 xmlns:xlink="http://www.w3.org/1999/xlink">
 <defs>
  <style type="text/css">
   <![CDATA[
    .fil1 {fill:#434242}
    .fil2 {fill:#FEFEFE}
    .fil0 {fill:#2B2A29;fill-rule:nonzero}
   ]]>
  </style>
 </defs>
 <g id="Layer_x0020_1">
  <metadata id="CorelCorpID_0Corel-Layer"/>
  <path class="fil0" d="M1.59294 99.5948l7.97182 0c2.51256,0 4.42293,0.194191 5.71805,0.589301 1.29512,0.388574 2.34413,1.18495 3.1407,2.37663 0.796566,1.19802 1.19148,3.12128 1.19148,5.77631 0,1.80021 -0.278404,3.05014 -0.841749,3.75596 -0.563345,0.712353 -1.67081,1.25628 -3.32854,1.63178 1.84558,0.421067 3.09532,1.11381 3.75596,2.0788 0.653904,0.971338 0.98422,2.4543 0.98422,4.44889l0 2.84922c0,2.07226 -0.233029,3.60695 -0.712353,4.61078 -0.472595,0.997294 -1.23032,1.67715 -2.26646,2.04631 -1.03613,0.369155 -3.16012,0.550463 -6.37215,0.550463l-9.24098 0 0 -30.7144zm7.99124 5.2518l0 6.83186c0.336661,-0.012882 0.602183,-0.0194191 0.796374,-0.0194191 0.783684,0 1.28224,-0.194191 1.49604,-0.576227 0.21361,-0.388574 0.323779,-1.4895 0.323779,-3.30912 0,-0.964993 -0.0907505,-1.63851 -0.265522,-2.02054 -0.181309,-0.388574 -0.407993,-0.634484 -0.692934,-0.731772 -0.284941,-0.103632 -0.841942,-0.16189 -1.65773,-0.174772zm0 11.6111l0 8.59323c1.12015,-0.032301 1.83904,-0.21361 2.14994,-0.531044 0.310705,-0.310705 0.46625,-1.09439 0.46625,-2.33125l0 -2.86229c0,-1.31454 -0.142471,-2.1111 -0.421067,-2.38951 -0.278404,-0.278404 -1.01018,-0.440294 -2.19512,-0.479132z"/>
  <path id="1" class="fil0" d="M41.2959 117.578c0,3.08898 -0.0711392,5.27141 -0.21361,6.55346 -0.149008,1.28877 -0.602376,2.46084 -1.36645,3.52293 -0.764073,1.06209 -1.80021,1.87788 -3.10186,2.44776 -1.30165,0.569882 -2.82346,0.854824 -4.55252,0.854824 -1.64485,0 -3.12128,-0.272059 -4.42928,-0.809448 -1.31473,-0.537581 -2.36374,-1.34049 -3.16031,-2.41546 -0.796374,-1.07497 -1.26916,-2.24704 -1.42471,-3.50985 -0.148815,-1.26916 -0.226492,-3.4839 -0.226492,-6.64421l0 -5.2518c0,-3.08879 0.0711392,-5.27122 0.220147,-6.5598 0.142471,-1.28224 0.595646,-2.4543 1.36626,-3.51639 0.764265,-1.06209 1.79386,-1.87788 3.10205,-2.44776 1.30146,-0.569882 2.81692,-0.854824 4.55233,-0.854824 1.64485,0 3.12128,0.271867 4.42947,0.809448 1.308,0.537389 2.36355,1.34049 3.16012,2.41546 0.796566,1.07497 1.26935,2.24704 1.41817,3.50985 0.155545,1.26916 0.226684,3.47736 0.226684,6.64401l0 5.2518zm-7.98451 -10.0891c0,-1.43124 -0.0778685,-2.34432 -0.239758,-2.74578 -0.155353,-0.394919 -0.479132,-0.595839 -0.971338,-0.595839 -0.420875,0 -0.738117,0.16189 -0.958264,0.485669 -0.226684,0.317435 -0.336854,1.26935 -0.336854,2.85595l0 14.3372c0,1.78732 0.0776763,2.88825 0.220147,3.30259 0.142471,0.421067 0.485669,0.62814 1.01671,0.62814 0.543926,0 0.887125,-0.239566 1.04267,-0.718698 0.148815,-0.485669 0.226684,-1.62543 0.226684,-3.43871l0 -14.1106z"/>
  <path id="12" class="fil0" d="M62.5234 117.578c0,3.08898 -0.0711392,5.27141 -0.21361,6.55346 -0.149008,1.28877 -0.602376,2.46084 -1.36645,3.52293 -0.764073,1.06209 -1.80021,1.87788 -3.10186,2.44776 -1.30165,0.569882 -2.82346,0.854824 -4.55252,0.854824 -1.64485,0 -3.12128,-0.272059 -4.42928,-0.809448 -1.31473,-0.537581 -2.36374,-1.34049 -3.16031,-2.41546 -0.796374,-1.07497 -1.26916,-2.24704 -1.42471,-3.50985 -0.148815,-1.26916 -0.226492,-3.4839 -0.226492,-6.64421l0 -5.2518c0,-3.08879 0.0711392,-5.27122 0.220147,-6.5598 0.142471,-1.28224 0.595646,-2.4543 1.36626,-3.51639 0.764265,-1.06209 1.79386,-1.87788 3.10205,-2.44776 1.30146,-0.569882 2.81692,-0.854824 4.55233,-0.854824 1.64485,0 3.12128,0.271867 4.42947,0.809448 1.308,0.537389 2.36355,1.34049 3.16012,2.41546 0.796566,1.07497 1.26935,2.24704 1.41817,3.50985 0.155545,1.26916 0.226684,3.47736 0.226684,6.64401l0 5.2518zm-7.98451 -10.0891c0,-1.43124 -0.0778685,-2.34432 -0.239758,-2.74578 -0.155353,-0.394919 -0.479132,-0.595839 -0.971338,-0.595839 -0.420875,0 -0.738117,0.16189 -0.958264,0.485669 -0.226684,0.317435 -0.336854,1.26935 -0.336854,2.85595l0 14.3372c0,1.78732 0.0776763,2.88825 0.220147,3.30259 0.142471,0.421067 0.485669,0.62814 1.01671,0.62814 0.543926,0 0.887125,-0.239566 1.04267,-0.718698 0.148815,-0.485669 0.226684,-1.62543 0.226684,-3.43871l0 -14.1106z"/>
  <polygon id="123" class="fil0" points="84.5345,99.5948 79.9627,113.459 84.9684,130.309 76.7184,130.309 73.4935,117.144 73.4935,130.309 65.5023,130.309 65.5023,99.5948 73.4935,99.5948 73.4935,111.53 77.0356,99.5948 "/>
  <path id="1234" class="fil0" d="M104.305 112.987l-7.98451 0 0 -5.34909c0,-1.5541 -0.0907505,-2.52544 -0.258985,-2.91401 -0.168427,-0.382037 -0.544119,-0.57642 -1.12688,-0.57642 -0.660441,0 -1.07497,0.233221 -1.25628,0.699471 -0.174772,0.472787 -0.265522,1.48296 -0.265522,3.03707l0 14.2661c0,1.49585 0.0907505,2.46738 0.265522,2.92055 0.181309,0.459905 0.57642,0.686397 1.19802,0.686397 0.595839,0 0.98422,-0.226492 1.16572,-0.686397 0.181309,-0.453176 0.278404,-1.5218 0.278404,-3.20549l0 -3.84651 7.98451 0 0 1.19148c0,3.17319 -0.226684,5.42676 -0.673515,6.75418 -0.446639,1.32761 -1.44393,2.49314 -2.97881,3.49043 -1.53468,0.997294 -3.43218,1.50238 -5.67921,1.50238 -2.34413,0 -4.27393,-0.427412 -5.78919,-1.2757 -1.51546,-0.848287 -2.52563,-2.02035 -3.01784,-3.51639 -0.492014,-1.50238 -0.738117,-3.75596 -0.738117,-6.76707l0 -8.96892c0,-2.21474 0.0776763,-3.87247 0.226492,-4.97993 0.155545,-1.10727 0.602376,-2.1757 1.35991,-3.19896 0.751191,-1.02325 1.79386,-1.8327 3.12782,-2.422 1.33415,-0.582764 2.86883,-0.880588 4.5979,-0.880588 2.35721,0 4.29988,0.459713 5.82803,1.36626 1.52834,0.913081 2.53217,2.0465 3.01784,3.40622 0.479132,1.35991 0.718698,3.47755 0.718698,6.34638l0 2.92055z"/>
  <path id="12345" class="fil0" d="M120.961 99.5948l4.57175 30.7144 -8.17889 0 -0.394919 -5.52386 -2.86883 0 -0.472595 5.52386 -8.26964 0 4.06032 -30.7144 11.5528 0zm-4.22874 19.7509c-0.407993,-3.47736 -0.809448,-7.77724 -1.21744,-12.8868 -0.809448,5.8736 -1.31454,10.1669 -1.51526,12.8868l2.73271 0z"/>
  <path id="123456" class="fil0" d="M143.82 108.888l-7.41482 0 0 -2.27299c0,-1.06209 -0.0970954,-1.74195 -0.284941,-2.03343 -0.187846,-0.291478 -0.505088,-0.433949 -0.951919,-0.433949 -0.479132,0 -0.841942,0.194383 -1.08785,0.589301 -0.246103,0.388574 -0.369155,0.984412 -0.369155,1.78098 0,1.02306 0.135933,1.80021 0.414338,2.31818 0.265522,0.518162 1.02325,1.13976 2.26011,1.87807 3.55523,2.1111 5.78938,3.84017 6.71535,5.19354 0.925963,1.35337 1.38587,3.53581 1.38587,6.54692 0,2.18878 -0.259177,3.80133 -0.77061,4.83746 -0.511625,1.03613 -1.50238,1.91038 -2.96593,2.60965 -1.47008,0.699471 -3.17319,1.05555 -5.1224,1.05555 -2.13687,0 -3.96303,-0.407993 -5.47195,-1.21744 -1.51526,-0.809448 -2.50621,-1.83904 -2.97246,-3.08898 -0.46625,-1.25628 -0.699279,-3.03053 -0.699279,-5.33601l0 -2.00747 7.41462 0 0 3.73654c0,1.15265 0.103632,1.89096 0.310897,2.22127 0.213802,0.323779 0.582764,0.492014 1.11381,0.492014 0.531044,0 0.926155,-0.207073 1.18514,-0.62814 0.258985,-0.414338 0.388574,-1.03613 0.388574,-1.85846 0,-1.80674 -0.246103,-2.99188 -0.738309,-3.54869 -0.505088,-0.557 -1.75483,-1.48296 -3.73654,-2.78462 -1.98805,-1.32107 -3.30259,-2.27299 -3.95015,-2.86883 -0.641022,-0.595646 -1.1786,-1.41817 -1.59948,-2.46718 -0.427412,-1.04901 -0.634677,-2.38951 -0.634677,-4.02148 0,-2.35067 0.297823,-4.0732 0.900199,-5.16105 0.595646,-1.08804 1.56698,-1.93633 2.90748,-2.55159 1.34049,-0.608721 2.95958,-0.919426 4.85688,-0.919426 2.0788,0 3.84651,0.336661 5.30371,1.00364 1.46335,0.673515 2.42835,1.51546 2.90748,2.53851 0.472787,1.01671 0.706008,2.74578 0.706008,5.18701l0 1.2111z"/>
  <polygon id="1234567" class="fil0" points="146.993,99.5948 160.314,99.5948 160.314,105.74 154.984,105.74 154.984,111.562 159.971,111.562 159.971,117.41 154.984,117.41 154.984,124.164 160.845,124.164 160.845,130.309 146.993,130.309 "/>
  <g id="_246798992">
   <rect id="_246515840" class="fil1" x="11.4395" y="2.73679e-005" width="65.4714" height="40.8912"/>
   <rect id="_246514256" class="fil2" x="26.7736" y="9.30519" width="7.07683" height="27.7851"/>
   <rect id="_246513704" class="fil2" x="37.2584" y="9.30519" width="7.07683" height="27.7851"/>
   <rect id="_246513272" class="fil2" transform="matrix(0.0208498 -0.00789305 0.232422 0.613953 45.9021 11.4578)" width="317.435" height="42.3247"/>
   <rect id="_246511424" class="fil2" x="16.2886" y="9.30519" width="7.07683" height="27.7851"/>
   <rect id="_246509336" class="fil1" x="11.4395" y="47.8194" width="65.4714" height="40.8912"/>
   <rect id="_246504104" class="fil2" x="54.4051" y="57.1246" width="7.07683" height="27.7851"/>
   <rect id="_246502760" class="fil2" x="43.9202" y="57.1246" width="7.07683" height="27.7851"/>
   <rect id="_244240192" class="fil2" x="64.89" y="57.1246" width="7.07683" height="27.7851"/>
   <rect id="_244239832" class="fil1" x="83.9339" y="2.73679e-005" width="65.4714" height="40.8912"/>
   <rect id="_244239496" class="fil2" x="99.268" y="9.30519" width="7.07683" height="27.7851"/>
   <rect id="_246788936" class="fil2" x="109.753" y="9.30519" width="7.07683" height="27.7851"/>
   <rect id="_246788648" class="fil2" x="88.783" y="9.30519" width="7.07683" height="27.7851"/>
   <rect id="_246787064" class="fil1" x="83.9339" y="47.8194" width="65.4714" height="40.8912"/>
   <rect id="_244241128" class="fil2" x="126.899" y="57.1246" width="7.07683" height="27.7851"/>
   <rect id="_244240504" class="fil2" x="116.415" y="57.1246" width="7.07683" height="27.7851"/>
   <rect id="_244240312" class="fil2" x="137.384" y="57.1246" width="7.07683" height="27.7851"/>
   <rect id="_244240096" class="fil2" transform="matrix(-0.0215625 -0.00566311 -0.166758 0.634941 115.048 58.4791)" width="317.435" height="42.3247"/>
  </g>
 </g>
</svg>
